<?xml version="1.0" standalone="no"?>
<!DOCTYPE svg PUBLIC "-//W3C//DTD SVG 20010904//EN"
 "http://www.w3.org/TR/2001/REC-SVG-20010904/DTD/svg10.dtd">
<svg version="1.0" xmlns="http://www.w3.org/2000/svg"
 width="440.000000pt" height="440.000000pt" viewBox="0 0 440.000000 440.000000"
 preserveAspectRatio="xMidYMid meet">
<metadata>
Created by potrace 1.11, written by Peter Selinger 2001-2013
</metadata>
<g transform="translate(0.000000,440.000000) scale(0.100000,-0.100000)"
fill="#000000" stroke="none">
<path d="M1317 4367 c-51 -16 -106 -62 -124 -104 -18 -45 -18 -155 1 -215 18
-62 59 -131 92 -157 22 -17 25 -25 19 -53 -4 -18 -20 -48 -36 -66 -34 -38 -62
-129 -85 -267 -14 -89 -14 -130 -3 -362 19 -388 1 -595 -76 -908 -19 -77 -40
-174 -46 -215 -13 -85 -6 -307 10 -323 6 -6 46 -16 88 -21 l78 -11 -3 -95 c-1
-52 -9 -349 -17 -660 -8 -311 -17 -618 -19 -683 -4 -93 -2 -119 8 -123 8 -3
17 -21 20 -40 l7 -34 266 0 c150 0 263 4 257 9 -5 4 -51 25 -102 46 -51 21
-95 41 -97 45 -2 4 5 159 16 346 10 186 31 533 44 769 14 237 31 473 39 525
21 134 45 425 52 634 5 121 11 176 18 173 6 -2 61 -14 122 -27 l112 -23 23
-51 c27 -58 129 -216 152 -235 11 -8 21 -9 34 -3 32 17 220 217 250 265 26 42
46 57 173 127 80 44 146 80 149 80 11 0 -10 -236 -29 -322 -16 -77 -40 -137
-110 -280 -213 -440 -390 -1040 -464 -1573 -52 -379 -54 -448 -10 -492 28 -28
48 -29 232 -7 142 17 156 17 1028 -2 391 -9 493 6 529 76 39 75 9 192 -219
875 -198 594 -256 746 -367 968 -83 167 -114 217 -190 309 -26 31 -62 86 -79
122 -46 92 -40 119 69 346 49 102 97 214 106 250 42 157 7 344 -90 475 -38 51
-38 53 5 81 22 15 51 45 64 67 13 21 26 34 30 29 15 -24 37 -173 56 -373 22
-236 34 -304 60 -339 25 -33 64 -29 136 13 86 51 108 55 159 27 56 -31 82 -23
153 45 53 52 59 55 107 55 79 0 134 33 167 100 15 30 30 67 34 83 5 24 3 27
-17 27 -13 0 -46 -7 -73 -15 -77 -23 -135 -19 -209 15 -103 49 -149 125 -272
452 -118 314 -194 402 -311 362 -35 -12 -41 -11 -59 5 -34 31 -61 41 -112 41
-98 0 -215 -86 -271 -200 -22 -45 -27 -71 -30 -152 -3 -67 -9 -101 -18 -109
-21 -17 -17 -39 11 -65 19 -17 25 -33 25 -64 0 -65 38 -89 128 -81 27 2 29
-21 6 -120 -20 -87 -73 -168 -152 -232 -76 -60 -97 -101 -88 -178 5 -57 5 -58
-31 -90 -45 -39 -122 -89 -138 -89 -7 0 -17 19 -24 41 -30 99 -111 118 -213
49 l-59 -39 -24 27 c-14 15 -25 30 -25 34 0 4 -20 19 -45 34 -52 30 -102 29
-138 -3 -24 -22 -56 -90 -57 -120 0 -13 -3 -23 -7 -22 -5 0 -51 17 -103 37
l-95 38 -12 169 c-21 287 -53 465 -108 596 -28 66 -40 150 -27 194 8 29 11 30
63 30 76 0 79 3 72 85 -6 67 -5 70 16 70 28 0 27 20 -4 78 -17 31 -25 63 -25
95 0 27 -5 57 -10 68 -8 14 -7 27 5 48 25 50 20 68 -27 85 -98 35 -264 46
-341 23z"/>
</g>
</svg>
